<svg xmlns="http://www.w3.org/2000/svg" xmlns:xlink="http://www.w3.org/1999/xlink" viewBox="0 0 188.29 160.06"><defs><style>.cls-1,.cls-2,.cls-3{stroke:#9a5b24;stroke-miterlimit:10;}.cls-1{fill:url(#Namnlös_övertoning_27);}.cls-2{fill:url(#Namnlös_övertoning_21);}.cls-3{fill:url(#Namnlös_övertoning_18);}</style><linearGradient id="Namnlös_övertoning_27" x1="115.96" y1="67.65" x2="165.33" y2="67.65" gradientUnits="userSpaceOnUse"><stop offset="0" stop-color="#fff"/><stop offset="0.58" stop-color="#995b24"/></linearGradient><linearGradient id="Namnlös_övertoning_21" x1="27.71" y1="67.32" x2="77.08" y2="67.32" gradientUnits="userSpaceOnUse"><stop offset="0.39" stop-color="#995b24"/><stop offset="0.93" stop-color="#fff"/></linearGradient><radialGradient id="Namnlös_övertoning_18" cx="94.14" cy="80.03" r="86.87" gradientUnits="userSpaceOnUse"><stop offset="0" stop-color="#fff"/><stop offset="0.71" stop-color="#669965"/></radialGradient></defs><g id="Lager_2" data-name="Lager 2"><g id="Lager_1-2" data-name="Lager 1"><path class="cls-1" d="M116,64.68c9-19.58,20.37-30.9,28.68-29,4,.9,6.51,4.71,9.41,9.17,7.73,11.91,15.62,29.09,8.48,32.56-39.8,19.37-41.82,27.44-42.49,19.42S116,64.68,116,64.68Z"/><path class="cls-2" d="M77.08,64.35c-9-19.58-20.38-30.9-28.69-29-4,.9-6.5,4.71-9.4,9.17C31.25,56.39,23.36,73.57,30.5,77,70.31,96.41,72.33,104.48,73,96.46S77.08,64.35,77.08,64.35Z"/><path class="cls-3" d="M158.87,66.1a131.5,131.5,0,0,1-42.68,29C88.6,106.52,65.63,104.25,64.54,112c-.9,6.41,13.83,14.31,22.94,17.19A34,34,0,0,0,102.42,131a37.47,37.47,0,0,0,15.78-6.43C137.62,110.31,113,.25,98.07.5,88.35.66,77.65,22.09,68.39,82.3c-3.87,25.18-52.73-28.91-64-20.38-9.83,7.47-1,46.89,24.08,70.71,33.5,31.85,98.33,38,132.73,4.46,29.46-28.74,31.29-81.43,20.49-86.39C176.32,48.22,166.75,57.21,158.87,66.1Z"/></g></g></svg>